<mxfile><diagram id="5UuQDGt_mR-kNPHw-TDl" name="Page-1"><mxGraphModel dx="1314" dy="692" grid="1" gridSize="10" guides="1" tooltips="1" connect="1" arrows="1" fold="1" page="1" pageScale="1" pageWidth="827" pageHeight="1169" math="0" shadow="0"><root><mxCell id="0"/><mxCell id="1" parent="0"/><mxCell id="2" value="" style="pointerEvents=1;verticalLabelPosition=bottom;shadow=0;dashed=0;align=center;html=1;verticalAlign=top;shape=mxgraph.electrical.resistors.resistor_2;" parent="1" vertex="1"><mxGeometry x="190" y="390" width="100" height="20" as="geometry"/></mxCell><mxCell id="3" value="" style="verticalLabelPosition=bottom;shadow=0;dashed=0;align=center;html=1;verticalAlign=top;shape=mxgraph.electrical.opto_electronics.led_2;pointerEvents=1;direction=west;" vertex="1" parent="1"><mxGeometry x="440" y="370" width="100" height="70" as="geometry"/></mxCell><mxCell id="4" value="" style="endArrow=none;html=1;exitX=1;exitY=0.5;exitDx=0;exitDy=0;exitPerimeter=0;entryX=1;entryY=0.57;entryDx=0;entryDy=0;entryPerimeter=0;" edge="1" parent="1" source="2" target="3"><mxGeometry width="50" height="50" relative="1" as="geometry"><mxPoint x="390" y="490" as="sourcePoint"/><mxPoint x="440" y="440" as="targetPoint"/></mxGeometry></mxCell><mxCell id="5" value="" style="pointerEvents=1;verticalLabelPosition=bottom;shadow=0;dashed=0;align=center;html=1;verticalAlign=top;shape=mxgraph.electrical.miscellaneous.batteryStack;" vertex="1" parent="1"><mxGeometry x="310" y="220" width="100" height="60" as="geometry"/></mxCell><mxCell id="6" value="" style="endArrow=none;html=1;exitX=0;exitY=0.5;exitDx=0;exitDy=0;exitPerimeter=0;entryX=0;entryY=0.5;entryDx=0;entryDy=0;" edge="1" parent="1" source="2" target="5"><mxGeometry width="50" height="50" relative="1" as="geometry"><mxPoint x="390" y="490" as="sourcePoint"/><mxPoint x="440" y="440" as="targetPoint"/></mxGeometry></mxCell><mxCell id="7" value="" style="endArrow=none;html=1;entryX=1;entryY=0.5;entryDx=0;entryDy=0;exitX=0;exitY=0.57;exitDx=0;exitDy=0;exitPerimeter=0;" edge="1" parent="1" source="3" target="5"><mxGeometry width="50" height="50" relative="1" as="geometry"><mxPoint x="390" y="490" as="sourcePoint"/><mxPoint x="440" y="440" as="targetPoint"/></mxGeometry></mxCell><mxCell id="8" value="+" style="text;html=1;align=center;verticalAlign=middle;resizable=0;points=[];autosize=1;strokeColor=none;fillColor=none;" vertex="1" parent="1"><mxGeometry x="410" y="210" width="20" height="20" as="geometry"/></mxCell><mxCell id="9" value="-" style="text;html=1;align=center;verticalAlign=middle;resizable=0;points=[];autosize=1;strokeColor=none;fillColor=none;" vertex="1" parent="1"><mxGeometry x="300" y="210" width="20" height="20" as="geometry"/></mxCell><mxCell id="10" value="+" style="text;html=1;align=center;verticalAlign=middle;resizable=0;points=[];autosize=1;strokeColor=none;fillColor=none;" vertex="1" parent="1"><mxGeometry x="540" y="370" width="20" height="20" as="geometry"/></mxCell><mxCell id="11" value="-" style="text;html=1;align=center;verticalAlign=middle;resizable=0;points=[];autosize=1;strokeColor=none;fillColor=none;" vertex="1" parent="1"><mxGeometry x="430" y="370" width="20" height="20" as="geometry"/></mxCell></root></mxGraphModel></diagram></mxfile>